<svg width="46" height="42" viewBox="0 0 46 42" fill="none" xmlns="http://www.w3.org/2000/svg">
<path d="M1.34777 35.8242H8.08603V39.8671C8.08603 40.6114 8.68942 41.2148 9.43369 41.2148H44.6524C45.3966 41.2148 46 40.6114 46 39.8671V4.82812C46 4.08385 45.3966 3.48046 44.6524 3.48046H37.9141V2.13281C37.9141 1.38855 37.3107 0.785156 36.5664 0.785156C35.8222 0.785156 35.2188 1.38855 35.2188 2.13281V3.48046H28.3907V2.13281C28.3907 1.38855 27.7873 0.785156 27.043 0.785156C26.2988 0.785156 25.6954 1.38855 25.6954 2.13281V3.48046H18.9571V2.13281C18.9571 1.38855 18.3537 0.785156 17.6095 0.785156C16.8652 0.785156 16.2618 1.38855 16.2618 2.13281V3.48046H9.43369C8.68942 3.48046 8.08603 4.08385 8.08603 4.82812V12.914C8.08603 22.8462 3.95817 30.4871 0.484998 33.4412C0.0490771 33.8045 -0.112551 34.4017 0.0805224 34.9353C0.273776 35.4688 0.780314 35.8242 1.34777 35.8242ZM43.3047 38.5195H10.7813V35.8242H36.5664C36.8817 35.8242 37.187 35.7136 37.4292 35.5118C39.0493 34.1624 41.5587 30.9498 43.3047 26.8351V38.5195ZM10.7813 6.17577H16.2618V7.52342C16.2618 8.26769 16.8652 8.87108 17.6095 8.87108C18.3537 8.87108 18.9571 8.26769 18.9571 7.52342V6.17577H25.6954V7.52342C25.6954 8.26769 26.2988 8.87108 27.043 8.87108C27.7873 8.87108 28.3907 8.26769 28.3907 7.52342V6.17577H35.2188V7.52342C35.2188 8.26769 35.8222 8.87108 36.5664 8.87108C37.3107 8.87108 37.9141 8.26769 37.9141 7.52342V6.17577H43.3047V11.5664H10.7813V6.17577ZM10.7583 14.2608H43.2808C42.9771 22.8099 39.696 29.5363 36.038 33.1288H4.41314C8.55789 27.8477 10.5359 20.9714 10.7583 14.2608Z" fill="black"/>
</svg>
