<svg width="33" height="43" viewBox="0 0 33 43" fill="none" xmlns="http://www.w3.org/2000/svg">
<path d="M24.5625 12.0937H8.4375C8.08112 12.0937 7.73933 11.9521 7.48733 11.7001C7.23532 11.4481 7.09375 11.1063 7.09375 10.7499V8.06245C7.09492 6.99365 7.52002 5.96897 8.27577 5.21322C9.03152 4.45747 10.0562 4.03237 11.125 4.0312H12.4714C12.4928 3.02949 12.8778 2.06975 13.5546 1.33093C14.2313 0.592106 15.1537 0.124631 16.1497 0.0156681C16.7388 -0.0384401 17.3325 0.039763 17.8875 0.244562C18.4425 0.449361 18.9447 0.77558 19.3575 1.19938C19.7329 1.56863 20.0303 2.0096 20.232 2.49607C20.4336 2.98255 20.5354 3.5046 20.5312 4.0312H21.875C22.9438 4.03237 23.9685 4.45747 24.7242 5.21322C25.48 5.96897 25.9051 6.99365 25.9062 8.06245V10.7499C25.9062 11.1063 25.7647 11.4481 25.5127 11.7001C25.2607 11.9521 24.9189 12.0937 24.5625 12.0937ZM9.78125 9.4062H23.2188V8.06245C23.2184 7.70616 23.0768 7.36456 22.8248 7.11263C22.5729 6.86069 22.2313 6.71902 21.875 6.7187H19.1875C18.8311 6.7187 18.4893 6.57712 18.2373 6.32512C17.9853 6.07312 17.8438 5.73133 17.8438 5.37495V4.0312C17.8455 3.85785 17.8122 3.68594 17.7458 3.52581C17.6794 3.36568 17.5812 3.22065 17.4573 3.09944C17.3181 2.95641 17.1491 2.84581 16.9623 2.7755C16.7756 2.7052 16.5756 2.67692 16.3766 2.69269C16.0268 2.74981 15.7098 2.93263 15.4851 3.20684C15.2604 3.48105 15.1435 3.82782 15.1562 4.1821V5.37495C15.1562 5.73133 15.0147 6.07312 14.7627 6.32512C14.5107 6.57712 14.1689 6.7187 13.8125 6.7187H11.125C10.7687 6.71902 10.4271 6.86069 10.1752 7.11263C9.92325 7.36456 9.78157 7.70616 9.78125 8.06245V9.4062Z" fill="black"/>
<path d="M28.5938 43H4.40625C3.33746 42.9988 2.31277 42.5737 1.55702 41.818C0.80127 41.0622 0.376174 40.0375 0.375 38.9688V10.75C0.376174 9.68121 0.80127 8.65652 1.55702 7.90077C2.31277 7.14502 3.33746 6.71992 4.40625 6.71875H8.4375C8.79388 6.71875 9.13567 6.86032 9.38767 7.11233C9.63968 7.36433 9.78125 7.70612 9.78125 8.0625C9.78125 8.41888 9.63968 8.76067 9.38767 9.01267C9.13567 9.26468 8.79388 9.40625 8.4375 9.40625H4.40625C4.04996 9.40657 3.70836 9.54825 3.45643 9.80018C3.2045 10.0521 3.06282 10.3937 3.0625 10.75V38.9688C3.06282 39.325 3.2045 39.6666 3.45643 39.9186C3.70836 40.1705 4.04996 40.3122 4.40625 40.3125H28.5938C28.95 40.3122 29.2916 40.1705 29.5436 39.9186C29.7955 39.6666 29.9372 39.325 29.9375 38.9688V10.75C29.9372 10.3937 29.7955 10.0521 29.5436 9.80018C29.2916 9.54825 28.95 9.40657 28.5938 9.40625H24.5625C24.2061 9.40625 23.8643 9.26468 23.6123 9.01267C23.3603 8.76067 23.2188 8.41888 23.2188 8.0625C23.2188 7.70612 23.3603 7.36433 23.6123 7.11233C23.8643 6.86032 24.2061 6.71875 24.5625 6.71875H28.5938C29.6625 6.71992 30.6872 7.14502 31.443 7.90077C32.1987 8.65652 32.6238 9.68121 32.625 10.75V38.9688C32.6238 40.0375 32.1987 41.0622 31.443 41.818C30.6872 42.5737 29.6625 42.9988 28.5938 43Z" fill="black"/>
<path d="M9.78125 14.7812H7.09375C6.35162 14.7812 5.75 15.3829 5.75 16.125V18.8125C5.75 19.5546 6.35162 20.1562 7.09375 20.1562H9.78125C10.5234 20.1562 11.125 19.5546 11.125 18.8125V16.125C11.125 15.3829 10.5234 14.7812 9.78125 14.7812Z" fill="black"/>
<path d="M25.9062 18.8125H15.1562C14.7999 18.8125 14.4581 18.6709 14.2061 18.4189C13.9541 18.1669 13.8125 17.8251 13.8125 17.4688C13.8125 17.1124 13.9541 16.7706 14.2061 16.5186C14.4581 16.2666 14.7999 16.125 15.1562 16.125H25.9062C26.2626 16.125 26.6044 16.2666 26.8564 16.5186C27.1084 16.7706 27.25 17.1124 27.25 17.4688C27.25 17.8251 27.1084 18.1669 26.8564 18.4189C26.6044 18.6709 26.2626 18.8125 25.9062 18.8125Z" fill="black"/>
<path d="M9.78125 22.8438H7.09375C6.35162 22.8438 5.75 23.4454 5.75 24.1875V26.875C5.75 27.6171 6.35162 28.2188 7.09375 28.2188H9.78125C10.5234 28.2188 11.125 27.6171 11.125 26.875V24.1875C11.125 23.4454 10.5234 22.8438 9.78125 22.8438Z" fill="black"/>
<path d="M25.9062 26.875H15.1562C14.7999 26.875 14.4581 26.7334 14.2061 26.4814C13.9541 26.2294 13.8125 25.8876 13.8125 25.5312C13.8125 25.1749 13.9541 24.8331 14.2061 24.5811C14.4581 24.3291 14.7999 24.1875 15.1562 24.1875H25.9062C26.2626 24.1875 26.6044 24.3291 26.8564 24.5811C27.1084 24.8331 27.25 25.1749 27.25 25.5312C27.25 25.8876 27.1084 26.2294 26.8564 26.4814C26.6044 26.7334 26.2626 26.875 25.9062 26.875Z" fill="black"/>
<path d="M9.78125 30.9062H7.09375C6.35162 30.9062 5.75 31.5079 5.75 32.25V34.9375C5.75 35.6796 6.35162 36.2812 7.09375 36.2812H9.78125C10.5234 36.2812 11.125 35.6796 11.125 34.9375V32.25C11.125 31.5079 10.5234 30.9062 9.78125 30.9062Z" fill="black"/>
<path d="M25.9062 34.9375H15.1562C14.7999 34.9375 14.4581 34.7959 14.2061 34.5439C13.9541 34.2919 13.8125 33.9501 13.8125 33.5938C13.8125 33.2374 13.9541 32.8956 14.2061 32.6436C14.4581 32.3916 14.7999 32.25 15.1562 32.25H25.9062C26.2626 32.25 26.6044 32.3916 26.8564 32.6436C27.1084 32.8956 27.25 33.2374 27.25 33.5938C27.25 33.9501 27.1084 34.2919 26.8564 34.5439C26.6044 34.7959 26.2626 34.9375 25.9062 34.9375Z" fill="black"/>
</svg>
