<svg width="44" height="44" viewBox="0 0 44 44" fill="none" xmlns="http://www.w3.org/2000/svg">
<path d="M38.2959 35.6122L41.1233 38.4395C41.2198 38.5362 41.338 38.6084 41.468 38.6502C41.598 38.6921 41.7361 38.7023 41.8709 38.6801C42.0071 38.6582 42.1359 38.6037 42.2466 38.5215C42.3573 38.4392 42.4465 38.3315 42.5068 38.2075C43.0192 37.1332 43.2014 35.9312 43.0303 34.7534C42.8593 33.5756 42.3427 32.475 41.546 31.5908C40.7492 30.7067 39.7081 30.0788 38.5544 29.7865C37.4007 29.4942 36.1862 29.5507 35.0647 29.9489L25.9295 20.8223L34.4373 12.3145L34.5318 12.2028L36.5514 9.36686C36.6707 9.20185 36.7276 8.99983 36.7119 8.79679C36.6961 8.59376 36.6088 8.40291 36.4654 8.25827L34.8412 6.64264C34.6977 6.49799 34.5074 6.40907 34.3043 6.39175C34.1012 6.37444 33.8986 6.42985 33.7326 6.54811L30.8967 8.57623L30.7936 8.66217L22.2858 17.17L13.1592 8.04342C13.5613 6.92037 13.6204 5.70312 13.3291 4.54638C13.0377 3.38963 12.4091 2.34562 11.523 1.54702C10.6369 0.748425 9.53333 0.231298 8.35262 0.0613609C7.17192 -0.108576 5.96735 0.0763509 4.892 0.59264C4.76797 0.652937 4.66027 0.742198 4.57801 0.852884C4.49574 0.96357 4.44132 1.09243 4.41934 1.22858C4.39715 1.36335 4.4074 1.50148 4.44924 1.6315C4.49109 1.76153 4.56333 1.8797 4.65997 1.97623L7.48731 4.80358C7.64914 4.9654 7.74005 5.18488 7.74005 5.41373C7.74005 5.64259 7.64914 5.86207 7.48731 6.02389C7.32549 6.18571 7.10601 6.27662 6.87716 6.27662C6.6483 6.27662 6.42882 6.18571 6.267 6.02389L3.44825 3.19655C3.35172 3.09991 3.23354 3.02767 3.10352 2.98582C2.9735 2.94398 2.83537 2.93372 2.70059 2.95592C2.56445 2.9779 2.43559 3.03232 2.3249 3.11458C2.21421 3.19685 2.12495 3.30455 2.06466 3.42858C1.55104 4.50363 1.36822 5.70698 1.53939 6.88606C1.71055 8.06514 2.22799 9.16685 3.02609 10.0515C3.82419 10.9361 4.867 11.5638 6.02231 11.855C7.17761 12.1462 8.39338 12.0878 9.51544 11.6872L18.6334 20.8223L15.5998 23.8559L14.3795 22.6442C14.2185 22.4841 14.0007 22.3943 13.7736 22.3943C13.5466 22.3943 13.3288 22.4841 13.1678 22.6442L10.7358 25.0676C10.5883 25.2186 10.5016 25.4185 10.4921 25.6293C10.4826 25.8401 10.551 26.047 10.6842 26.2106L2.03028 33.2919C1.14702 34.0133 0.50861 34.9903 0.202619 36.0889C-0.103372 37.1875 -0.0619507 38.3539 0.3212 39.428C0.704351 40.5022 1.41046 41.4315 2.34267 42.0884C3.27487 42.7454 4.38751 43.0978 5.52794 43.0973H5.80294C6.57421 43.0578 7.32874 42.8577 8.0183 42.51C8.70787 42.1622 9.31729 41.6745 9.80762 41.0778L16.8889 32.4239C17.0389 32.5483 17.2268 32.618 17.4217 32.6215C17.5348 32.6222 17.6469 32.6005 17.7516 32.5578C17.8563 32.515 17.9515 32.452 18.0318 32.3723L20.4639 29.9403C20.6239 29.7793 20.7138 29.5615 20.7138 29.3344C20.7138 29.1074 20.6239 28.8896 20.4639 28.7286L19.2436 27.5083L22.2772 24.4747L31.4037 33.584C31.0041 34.7066 30.9469 35.9226 31.2393 37.0777C31.5317 38.2329 32.1606 39.2752 33.0462 40.0724C33.9318 40.8696 35.0342 41.3859 36.2137 41.5557C37.3931 41.7255 38.5964 41.5412 39.6709 41.0262C39.7939 40.9668 39.9009 40.8788 39.9831 40.7697C40.0653 40.6606 40.1203 40.5335 40.1436 40.3989C40.1672 40.2628 40.1577 40.123 40.1158 39.9913C40.0739 39.8597 40.0009 39.7401 39.9029 39.6426L37.0842 36.8239C37.0041 36.7443 36.9404 36.6498 36.8968 36.5456C36.8532 36.4414 36.8306 36.3297 36.8302 36.2168C36.8298 36.1039 36.8516 35.992 36.8945 35.8875C36.9373 35.783 37.0003 35.688 37.0799 35.6079C37.1595 35.5277 37.254 35.4641 37.3582 35.4205C37.4624 35.3769 37.5741 35.3543 37.687 35.3539C37.7999 35.3535 37.9118 35.3753 38.0163 35.4182C38.1208 35.461 38.2158 35.524 38.2959 35.6036V35.6122ZM5.87169 38.4395L4.65997 37.2278L5.88028 36.0075L7.092 37.2278L5.87169 38.4395ZM8.30372 36.0075L7.092 34.7958L11.9561 29.9317L13.1678 31.152L8.30372 36.0075ZM18.0318 26.288L16.8115 25.0676L31.9537 9.93405L34.1451 8.36998L34.7295 8.96295L33.174 11.1458L18.0318 26.288Z" fill="black"/>
</svg>
