<svg width="46" height="21" viewBox="0 0 46 21" fill="none" xmlns="http://www.w3.org/2000/svg">
<path d="M43.5603 0.563965C43.5289 0.525816 43.4897 0.494074 43.445 0.470638C43.4004 0.447201 43.3512 0.432553 43.3005 0.427572C43.1949 0.422163 43.0908 0.453539 43.0078 0.51581L22.5208 16.4424L2.21912 0.280278C2.13763 0.215772 2.0334 0.183027 1.9275 0.188665C1.87671 0.193061 1.82739 0.20714 1.78248 0.230059C1.73758 0.252979 1.69802 0.284266 1.66616 0.322049L0.195825 1.98475C0.128542 2.06137 0.095511 2.15994 0.103789 2.25941C0.112067 2.35888 0.160997 2.45136 0.240126 2.51709C0.53951 2.63123 22.1124 20.1646 22.4995 20.1294C22.5924 20.1297 22.6823 20.0983 22.7527 20.0409L44.9609 2.77532C45.0408 2.71051 45.0907 2.61861 45.1002 2.51924C45.1096 2.41988 45.0777 2.32093 45.0113 2.24353L43.5603 0.563965Z" fill="white"/>
</svg>
