<svg width="16" height="16" viewBox="0 0 16 16" fill="none" xmlns="http://www.w3.org/2000/svg">
<path d="M15.0595 3.05947C15.6454 2.47354 15.6454 1.52197 15.0595 0.936035C14.4735 0.350098 13.522 0.350098 12.936 0.936035L8.0001 5.87666L3.05947 0.940723C2.47354 0.354785 1.52197 0.354785 0.936035 0.940723C0.350098 1.52666 0.350098 2.47822 0.936035 3.06416L5.87666 8.0001L0.940723 12.9407C0.354785 13.5267 0.354785 14.4782 0.940723 15.0642C1.52666 15.6501 2.47822 15.6501 3.06416 15.0642L8.0001 10.1235L12.9407 15.0595C13.5267 15.6454 14.4782 15.6454 15.0642 15.0595C15.6501 14.4735 15.6501 13.522 15.0642 12.936L10.1235 8.0001L15.0595 3.05947Z" fill="white"/>
</svg>
