<svg width="17" height="18" viewBox="0 0 17 18" fill="none" xmlns="http://www.w3.org/2000/svg">
<path d="M6.30128 1.53824C6.28228 1.54951 6.26651 1.56353 6.25491 1.57948C6.24332 1.59543 6.23613 1.61297 6.23378 1.63105C6.23138 1.66869 6.24738 1.70569 6.27878 1.73511L14.3075 8.9998L6.27878 16.2645C6.24674 16.2936 6.23065 16.3308 6.23378 16.3686C6.23613 16.3866 6.24332 16.4042 6.25491 16.4201C6.26651 16.4361 6.28228 16.4501 6.30128 16.4614L7.13753 16.9817C7.17607 17.0055 7.22549 17.017 7.27524 17.0139C7.32499 17.0107 7.37112 16.9931 7.40378 16.9648C7.46003 16.8579 16.1713 9.13761 16.1525 8.9998C16.1524 8.96672 16.1364 8.93478 16.1075 8.9098L7.40378 1.0348C7.37112 1.00648 7.32499 0.988861 7.27524 0.985706C7.22549 0.982553 7.17607 0.994116 7.13753 1.01792L6.30128 1.53824Z" fill="black"/>
<path d="M10.0625 8.99998C10.0638 8.96722 10.0492 8.93523 10.0213 8.90998L1.3138 1.03498C1.29824 1.02073 1.27903 1.00896 1.2573 1.00036C1.23557 0.991772 1.21177 0.986536 1.1873 0.984962C1.16283 0.983389 1.13818 0.985512 1.11482 0.991203C1.09146 0.996897 1.06986 1.00604 1.0513 1.01811L0.215047 1.53842C0.196049 1.54969 0.180278 1.56371 0.16868 1.57966C0.157081 1.59561 0.149894 1.61315 0.147548 1.63123C0.143733 1.66854 0.158422 1.7056 0.188797 1.73529L8.2213 8.99998L0.188797 16.2647C0.158095 16.2942 0.143368 16.3314 0.147548 16.3687C0.149894 16.3868 0.157081 16.4044 0.16868 16.4203C0.180278 16.4362 0.196049 16.4503 0.215047 16.4615L1.0513 16.9819C1.06986 16.9939 1.09146 17.0031 1.11482 17.0088C1.13818 17.0145 1.16283 17.0166 1.1873 17.015C1.21177 17.0134 1.23557 17.0082 1.2573 16.9996C1.27903 16.991 1.29824 16.9792 1.3138 16.965C1.3738 16.8581 10.085 9.13779 10.0625 8.99998Z" fill="black"/>
</svg>
