<svg width="9" height="17" viewBox="0 0 9 17" fill="none" xmlns="http://www.w3.org/2000/svg">
<path d="M0.585813 16.3903C0.46992 16.3903 0.356637 16.3541 0.260291 16.2865C0.163945 16.2189 0.088864 16.1228 0.0445423 16.0103C0.00022064 15.8979 -0.0113505 15.7742 0.0112925 15.6548C0.0339354 15.5355 0.0897751 15.4259 0.17175 15.3399L6.97995 8.19126L0.17175 1.04264C0.0650167 0.92661 0.00595739 0.771201 0.0072924 0.609888C0.00862741 0.448576 0.07025 0.294268 0.178888 0.180198C0.287525 0.0661286 0.434485 0.00142502 0.588116 2.32575e-05C0.741747 -0.0013785 0.889757 0.0606336 1.00027 0.172704L8.22292 7.75649C8.33277 7.87187 8.39448 8.02833 8.39448 8.19146C8.39448 8.3546 8.33277 8.51106 8.22292 8.62643L1.00027 16.2102C0.94583 16.2673 0.88121 16.3126 0.810097 16.3435C0.738985 16.3744 0.662772 16.3903 0.585813 16.3903Z" fill="white"/>
</svg>
