<svg width="37" height="39" viewBox="0 0 37 39" fill="none" xmlns="http://www.w3.org/2000/svg">
<path d="M18.4988 0.560001C8.60233 0.560001 0.560058 8.60227 0.560059 18.4988C0.560059 28.3953 8.60233 36.4375 18.4988 36.4375C19.4004 36.4375 20.2999 36.3711 21.1912 36.2357L20.939 34.5459C20.1325 34.6684 19.3145 34.7288 18.4988 34.7288C9.52558 34.7288 2.26881 27.472 2.26881 18.4988C2.26881 9.52552 9.52558 2.26875 18.4988 2.26875C27.4721 2.26875 34.7288 9.52552 34.7288 18.4988C34.7288 21.3507 33.9808 24.151 32.5535 26.6201L34.0289 27.4776C35.6065 24.7487 36.4376 21.6508 36.4376 18.4988C36.4376 8.60227 28.3953 0.56 18.4988 0.560001Z" fill="black"/>
<path d="M18.4862 9.09116C18.0143 9.09971 17.6388 9.48938 17.6476 9.9613V18.442C17.6478 18.6662 17.7361 18.8814 17.8935 19.041L22.1623 23.3728C22.9651 24.1842 24.1821 22.9799 23.3792 22.1685L19.3564 18.0952V9.95499C19.3619 9.47317 18.968 9.08216 18.4862 9.09116Z" fill="black"/>
<path d="M18.417 3.12629C17.2779 3.18094 17.3598 4.88969 18.499 4.83504C19.6382 4.83504 19.6382 3.12629 18.499 3.12629C18.4717 3.12498 18.4443 3.12498 18.417 3.12629Z" fill="black"/>
<path d="M18.417 32.1688C17.2779 32.2234 17.3598 33.9322 18.499 33.8775C19.6382 33.8775 19.6382 32.1688 18.499 32.1688C18.4717 32.1675 18.4443 32.1675 18.417 32.1688Z" fill="black"/>
<path d="M32.938 17.6475C31.7989 17.7022 31.8808 19.4109 33.02 19.3563C34.1592 19.3563 34.1592 17.6475 33.02 17.6475C32.9926 17.6462 32.9653 17.6462 32.938 17.6475Z" fill="black"/>
<path d="M3.89555 17.6475C2.75638 17.7022 2.83835 19.4109 3.97752 19.3563C5.11669 19.3563 5.11669 17.6475 3.97752 17.6475C3.95021 17.6462 3.92286 17.6462 3.89555 17.6475Z" fill="black"/>
<path d="M28.7704 7.3761C27.6312 7.3761 27.6312 9.08485 28.7704 9.08485C29.9096 9.08485 29.9096 7.3761 28.7704 7.3761Z" fill="black"/>
<path d="M8.23377 27.9127C7.0946 27.9127 7.0946 29.6214 8.23377 29.6214C9.37294 29.6214 9.37294 27.9127 8.23377 27.9127Z" fill="black"/>
<path d="M8.23377 7.3761C7.0946 7.3761 7.0946 9.08485 8.23377 9.08485C9.37294 9.08485 9.37294 7.3761 8.23377 7.3761Z" fill="black"/>
<path d="M21.0651 26.185C20.5907 26.1832 20.2057 26.5682 20.2075 27.0425V38.1463C20.2092 38.6182 20.5932 38.9993 21.0651 38.9975H34.7288C35.2007 38.9993 35.5846 38.6182 35.5863 38.1463V27.0425C35.5881 26.5682 35.2031 26.1832 34.7288 26.185H21.0651ZM21.9163 27.8938H33.8776V37.2888H21.9163V27.8938Z" fill="black"/>
<path d="M25.2329 24.4699C24.7959 24.5201 24.4684 24.894 24.4762 25.3338V28.7513C24.4762 29.8904 26.185 29.8904 26.185 28.7513V25.3338C26.1942 24.8171 25.7462 24.4107 25.2329 24.4699Z" fill="black"/>
<path d="M30.3593 24.4699C29.9223 24.5201 29.5949 24.894 29.6027 25.3338V28.7513C29.6027 29.8904 31.3114 29.8904 31.3114 28.7513V25.3338C31.3208 24.8171 30.8726 24.4107 30.3593 24.4699Z" fill="black"/>
<path d="M21.0649 30.46V32.1688H34.7287V30.46H21.0649Z" fill="black"/>
</svg>
