<svg width="55" height="53" viewBox="0 0 55 53" fill="none" xmlns="http://www.w3.org/2000/svg">
<path d="M27.5 10.6014C18.7335 10.6014 11.6014 17.7335 11.6014 26.5C11.6014 35.2665 18.7335 42.3986 27.5 42.3986C36.2665 42.3986 43.3986 35.2665 43.3986 26.5C43.3986 17.7335 36.2665 10.6014 27.5 10.6014ZM33.5961 32.3711C33.2521 33.0187 32.7886 33.5424 32.2051 33.9419C31.6214 34.3417 30.9499 34.6335 30.1907 34.8171C29.8355 34.903 29.4721 34.9681 29.1011 35.0138V38.1409H25.8785V34.9457C25.2537 34.8498 24.6328 34.7072 24.0157 34.5174C22.7688 34.1337 21.6495 33.5905 20.6584 32.8867L22.1213 30.033C22.2652 30.1769 22.5248 30.3651 22.9007 30.5966C23.2761 30.8285 23.7198 31.0604 24.2317 31.292C24.7431 31.524 25.3107 31.7199 25.9343 31.8795C26.5578 32.0395 27.1971 32.1193 27.8528 32.1193C29.6753 32.1193 30.5866 31.5359 30.5866 30.3687C30.5866 30.0011 30.4824 29.6894 30.2749 29.4335C30.0669 29.178 29.7712 28.9539 29.3875 28.762C29.0038 28.5702 28.54 28.3944 27.9966 28.2345C27.453 28.0748 26.8456 27.8988 26.1741 27.7069C25.3587 27.4831 24.6512 27.2393 24.0518 26.9755C23.4523 26.7116 22.9525 26.3999 22.553 26.0401C22.1531 25.6804 21.8534 25.2649 21.6537 24.7932C21.4536 24.3218 21.3539 23.7582 21.3539 23.1025C21.3539 22.2392 21.5135 21.4718 21.8335 20.8003C22.1531 20.129 22.5968 19.5695 23.1645 19.1218C23.7318 18.6743 24.3913 18.3344 25.1429 18.1025C25.3823 18.0287 25.6278 17.968 25.8786 17.9178V14.8225H29.1013V17.8677C29.7216 17.9605 30.3134 18.1093 30.8743 18.3183C31.8815 18.6942 32.7605 19.1378 33.5122 19.6493L32.0494 22.3351C31.9373 22.2234 31.7335 22.0713 31.4378 21.8795C31.1419 21.6877 30.7821 21.4999 30.3587 21.316C29.935 21.1324 29.4752 20.9765 28.9799 20.8483C28.4841 20.7205 27.9805 20.6564 27.4691 20.6564C26.5578 20.6564 25.8781 20.8243 25.4307 21.16C24.983 21.4957 24.7593 21.9675 24.7593 22.5749C24.7593 22.9267 24.8432 23.2187 25.0111 23.4502C25.179 23.6821 25.4225 23.886 25.7426 24.0616C26.0621 24.2377 26.4657 24.3973 26.9535 24.5413C27.441 24.6851 28.0046 24.8372 28.6442 24.9968C29.4752 25.2209 30.2307 25.4607 30.9104 25.7162C31.5897 25.9721 32.1653 26.2918 32.637 26.6755C33.1083 27.0592 33.4722 27.519 33.7281 28.0544C33.9836 28.5902 34.1118 29.2497 34.1118 30.0328C34.1116 30.9443 33.9396 31.7237 33.5961 32.3711Z" fill="black"/>
<path d="M51.1798 18.8058L49.7492 10.3337L42.1315 6.35988L36.0001 0.338165L27.5001 1.60769L18.9999 0.338273L12.8685 6.35998L5.25084 10.3338L3.82018 18.8059L0 26.5L3.82029 34.1942L5.25095 42.6663L12.8686 46.6401L19 52.6618L27.5 51.3923L36.0001 52.6618L42.1315 46.6401L49.7492 42.6663L51.1798 34.1942L55.0001 26.5L51.1798 18.8058ZM27.5 45.6213C16.9565 45.6213 8.37868 37.0435 8.37868 26.5C8.37868 15.9565 16.9565 7.37868 27.5 7.37868C38.0435 7.37868 46.6213 15.9565 46.6213 26.5C46.6213 37.0435 38.0435 45.6213 27.5 45.6213Z" fill="black"/>
</svg>
