<svg width="55" height="55" viewBox="0 0 55 55" fill="none" xmlns="http://www.w3.org/2000/svg">
<path d="M44.2493 41.5594L47.0766 44.3867C47.1732 44.4834 47.2913 44.5556 47.4214 44.5974C47.5514 44.6393 47.6895 44.6495 47.8243 44.6273C47.9604 44.6054 48.0893 44.5509 48.2 44.4687C48.3107 44.3864 48.3999 44.2787 48.4602 44.1547C48.9725 43.0805 49.1547 41.8784 48.9837 40.7006C48.8126 39.5228 48.2961 38.4222 47.4993 37.538C46.7026 36.6539 45.6615 36.026 44.5078 35.7337C43.3541 35.4414 42.1396 35.4979 41.018 35.8961L31.8829 26.7695L40.3907 18.2617L40.4852 18.15L42.5047 15.3141C42.6241 15.1491 42.681 14.947 42.6652 14.744C42.6495 14.541 42.5622 14.3501 42.4188 14.2055L40.7946 12.5898C40.651 12.4452 40.4607 12.3563 40.2577 12.339C40.0546 12.3216 39.852 12.3771 39.686 12.4953L36.8501 14.5234L36.7469 14.6094L28.2391 23.1172L19.1126 13.9906C19.5147 12.8676 19.5738 11.6503 19.2824 10.4936C18.9911 9.33684 18.3624 8.29283 17.4763 7.49423C16.5902 6.69563 15.4867 6.1785 14.306 6.00857C13.1253 5.83863 11.9207 6.02356 10.8454 6.53984C10.7213 6.60014 10.6136 6.6894 10.5314 6.80009C10.4491 6.91077 10.3947 7.03963 10.3727 7.17578C10.3505 7.31056 10.3608 7.44868 10.4026 7.57871C10.4445 7.70873 10.5167 7.82691 10.6133 7.92344L13.4407 10.7508C13.6025 10.9126 13.6934 11.1321 13.6934 11.3609C13.6934 11.5898 13.6025 11.8093 13.4407 11.9711C13.2789 12.1329 13.0594 12.2238 12.8305 12.2238C12.6017 12.2238 12.3822 12.1329 12.2204 11.9711L9.40162 9.14375C9.30509 9.04711 9.18691 8.97487 9.05689 8.93303C8.92686 8.89118 8.78874 8.88093 8.65396 8.90313C8.51781 8.9251 8.38896 8.97952 8.27827 9.06179C8.16758 9.14406 8.07832 9.25175 8.01802 9.37578C7.50441 10.4508 7.32159 11.6542 7.49276 12.8333C7.66392 14.0123 8.18136 15.114 8.97946 15.9987C9.77756 16.8833 10.8204 17.511 11.9757 17.8022C13.131 18.0934 14.3467 18.035 15.4688 17.6344L24.5868 26.7695L21.5532 29.8031L20.3329 28.5914C20.1719 28.4313 19.954 28.3415 19.727 28.3415C19.5 28.3415 19.2822 28.4313 19.1212 28.5914L16.6891 31.0148C16.5417 31.1658 16.455 31.3657 16.4455 31.5765C16.436 31.7873 16.5043 31.9942 16.6376 32.1578L7.98365 39.2391C7.10039 39.9605 6.46198 40.9375 6.15599 42.0361C5.85 43.1347 5.89142 44.3011 6.27457 45.3753C6.65772 46.4494 7.36383 47.3787 8.29604 48.0356C9.22824 48.6926 10.3409 49.045 11.4813 49.0445H11.7563C12.5276 49.005 13.2821 48.8049 13.9717 48.4572C14.6612 48.1094 15.2707 47.6217 15.761 47.025L22.8422 38.3711C22.9923 38.4955 23.1802 38.5652 23.3751 38.5688C23.4882 38.5694 23.6003 38.5477 23.705 38.505C23.8097 38.4622 23.9049 38.3992 23.9852 38.3195L26.4172 35.8875C26.5773 35.7265 26.6671 35.5087 26.6671 35.2816C26.6671 35.0546 26.5773 34.8368 26.4172 34.6758L25.1969 33.4555L28.2305 30.4219L37.3571 39.5313C36.9575 40.6538 36.9003 41.8698 37.1927 43.0249C37.4851 44.1801 38.114 45.2224 38.9996 46.0196C39.8852 46.8168 40.9876 47.3331 42.167 47.5029C43.3465 47.6727 44.5497 47.4884 45.6243 46.9734C45.7473 46.914 45.8543 46.826 45.9365 46.7169C46.0187 46.6078 46.0737 46.4807 46.0969 46.3461C46.1206 46.21 46.111 46.0702 46.0691 45.9385C46.0273 45.8069 45.9543 45.6873 45.8563 45.5898L43.0376 42.7711C42.9574 42.6915 42.8938 42.597 42.8502 42.4928C42.8066 42.3886 42.784 42.2769 42.7836 42.164C42.7832 42.0511 42.805 41.9392 42.8479 41.8347C42.8907 41.7302 42.9537 41.6352 43.0333 41.5551C43.1128 41.475 43.2074 41.4113 43.3116 41.3677C43.4157 41.3241 43.5275 41.3015 43.6404 41.3011C43.7533 41.3007 43.8652 41.3225 43.9697 41.3654C44.0741 41.4082 44.1692 41.4712 44.2493 41.5508V41.5594ZM11.8251 44.3867L10.6133 43.175L11.8337 41.9547L13.0454 43.175L11.8251 44.3867ZM14.2571 41.9547L13.0454 40.743L17.9094 35.8789L19.1212 37.0992L14.2571 41.9547ZM23.9852 32.2352L22.7649 31.0148L37.9071 15.8813L40.0985 14.3172L40.6829 14.9102L39.1274 17.093L23.9852 32.2352Z" fill="black"/>
</svg>
