<svg width="55" height="55" viewBox="0 0 55 55" fill="none" xmlns="http://www.w3.org/2000/svg">
<g clip-path="url(#clip0_34_9)">
<path d="M38.9393 39.6121V45.6159C38.9393 46.392 38.8348 47.1504 38.6366 47.8869C43.1097 47.7596 47.2547 46.7207 50.3917 44.9281C54.4013 42.6371 54.9999 40.1972 54.9999 38.9468V34.4192C51.3095 37.4217 45.5654 39.3929 38.9393 39.6121Z" fill="black"/>
<path d="M54.9999 34.4191V34.42L55.0009 34.4191H54.9999Z" fill="black"/>
<path d="M38.9393 27.1159V35.2635C43.2963 35.0989 47.3258 34.0691 50.3918 32.3171C54.4014 30.0259 55.0001 27.5863 55.0001 26.3358V25.0398V21.6366C51.5461 24.7846 45.7304 26.8872 38.9393 27.1159Z" fill="black"/>
<path d="M49.7343 9.50235C46.8444 7.91283 43.048 6.97547 38.9392 6.81799V22.7676C43.048 22.6102 46.8443 21.6727 49.7343 20.0833C52.4622 18.583 54.0266 16.6547 54.0266 14.7928C54.0266 12.9309 52.4622 11.0027 49.7343 9.50235Z" fill="black"/>
<path d="M17.298 45.8829C10.1519 45.8829 3.91842 43.8569 0 40.6688V45.6159C0 46.8663 0.598661 49.3062 4.60828 51.5973C7.96274 53.514 12.4692 54.5696 17.2978 54.5696C22.1264 54.5696 26.6331 53.514 29.9873 51.5973C33.997 49.3061 34.5957 46.8662 34.5957 45.6159V40.6688C30.6776 43.8569 24.4441 45.8829 17.298 45.8829Z" fill="black"/>
<path d="M17.298 33.2718C10.1519 33.2718 3.91842 31.2458 0 28.0577V31.7091V32.5855C0.000107422 33.8358 0.598769 36.2756 4.60839 38.5668C7.96285 40.4835 12.4693 41.5392 17.2979 41.5392C22.1265 41.5392 26.6332 40.4835 29.9874 38.5668C33.997 36.2756 34.5957 33.8357 34.5957 32.5855V31.7091V28.0577C30.6776 31.2458 24.4441 33.2718 17.298 33.2718Z" fill="black"/>
<path d="M17.298 20.776C9.97851 20.776 3.662 18.6129 0 15.2753V18.6787V19.9745C0.000107422 21.225 0.598769 23.6647 4.60839 25.9559C7.96285 27.8726 12.4693 28.9282 17.2979 28.9282C22.1265 28.9282 26.6332 27.8726 29.9874 25.9559C33.997 23.6647 34.5957 21.225 34.5957 19.9745V18.6787V15.2753C30.9338 18.6129 24.6173 20.776 17.298 20.776Z" fill="black"/>
<path d="M29.3299 3.14108C26.1518 1.39312 21.8787 0.430298 17.2981 0.430298C12.7174 0.430298 8.44433 1.3929 5.26605 3.14108C2.53808 4.64144 0.973694 6.56966 0.973694 8.4316C0.973694 10.2933 2.53818 12.2217 5.26594 13.7221C8.44423 15.4701 12.7172 16.4329 17.298 16.4329C21.8788 16.4329 26.1518 15.4703 29.33 13.7221C32.0579 12.2218 33.6223 10.2935 33.6223 8.4316C33.6223 6.56966 32.0577 4.64144 29.3299 3.14108Z" fill="black"/>
</g>
<defs>
<clipPath id="clip0_34_9">
<rect width="55" height="55" fill="white"/>
</clipPath>
</defs>
</svg>
